<?xml version="1.0" standalone="no"?>
<svg xmlns="http://www.w3.org/2000/svg" viewBox="0 0 134.4 29" width="134.4" height="29"><path fill="#101010" fill-rule="nonzero" d="M8.38 20.81L0 20.81L0 0.19L4.13 0.19L4.13 17.30L8.38 17.30L8.38 20.81ZM14.57 21Q9.31 21 9.31 15.55L9.31 15.55L9.31 8.50Q9.31 6 10.72 4.52Q12.12 3.05 14.57 3.05L14.57 3.05Q17.02 3.05 18.42 4.52Q19.82 6 19.82 8.50L19.82 8.50L19.82 15.55Q19.82 21 14.57 21L14.57 21ZM14.57 17.76Q15.07 17.76 15.31 17.40Q15.55 17.04 15.55 16.42L15.55 16.42L15.55 7.82Q15.55 6.29 14.57 6.29L14.57 6.29Q13.58 6.29 13.58 7.82L13.58 7.82L13.58 16.42Q13.58 17.04 13.82 17.40Q14.06 17.76 14.57 17.76L14.57 17.76ZM21.05 23.74L21.05 21.07L23.06 21.07Q23.50 21.07 23.50 20.71L23.50 20.71Q23.50 20.54 23.47 20.45L23.47 20.45L20.74 3.24L24.74 3.24L25.54 11.81L25.92 16.18L26.38 11.81L27.31 3.24L31.34 3.24L28.08 21.72Q27.91 22.75 27.40 23.24Q26.88 23.74 25.78 23.74L25.78 23.74L21.05 23.74ZM35.64 21Q33.60 21 32.84 19.64Q32.09 18.29 32.09 15.77L32.09 15.77Q32.09 13.70 32.63 12.60Q33.17 11.50 34.13 10.98Q35.09 10.46 37.06 9.84L37.06 9.84L38.21 9.46L38.21 9.41L38.21 7.66Q38.21 6.96 37.93 6.59Q37.66 6.22 37.27 6.22L37.27 6.22Q36.94 6.22 36.68 6.53Q36.43 6.84 36.43 7.37L36.43 7.37L36.43 8.42L32.35 8.42L32.35 7.85Q32.35 5.26 33.56 4.15Q34.78 3.05 37.51 3.05L37.51 3.05Q39.70 3.05 41.06 4.19Q42.43 5.33 42.43 7.42L42.43 7.42L42.43 20.81L38.26 20.81L38.26 18.72Q37.94 19.80 37.26 20.40Q36.58 21 35.64 21L35.64 21ZM37.30 17.74Q37.78 17.74 37.98 17.34Q38.18 16.94 38.18 16.37L38.18 16.37L38.18 11.47Q37.25 11.83 36.80 12.38Q36.36 12.94 36.36 13.92L36.36 13.92L36.36 16.18Q36.36 17.74 37.30 17.74L37.30 17.74ZM48.31 20.81L44.04 20.81L44.04 0.07L48.31 0.07L48.31 20.81ZM60.60 21Q58.10 21 56.81 19.48Q55.51 17.95 55.51 15.19L55.51 15.19L55.51 5.38Q55.51 2.71 56.81 1.36Q58.10 0 60.60 0L60.60 0Q63.10 0 64.39 1.36Q65.69 2.71 65.69 5.38L65.69 5.38L65.69 15.19Q65.69 17.98 64.39 19.49Q63.10 21 60.60 21L60.60 21ZM60.60 17.21Q61.15 17.21 61.34 16.73Q61.54 16.25 61.54 15.38L61.54 15.38L61.54 5.30Q61.54 4.63 61.36 4.21Q61.18 3.79 60.62 3.79L60.62 3.79Q59.59 3.79 59.59 5.35L59.59 5.35L59.59 15.41Q59.59 16.30 59.81 16.75Q60.02 17.21 60.60 17.21L60.60 17.21ZM70.46 21Q68.42 21 67.67 19.64Q66.91 18.29 66.91 15.77L66.91 15.77Q66.91 13.70 67.45 12.60Q67.99 11.50 68.95 10.98Q69.91 10.46 71.88 9.84L71.88 9.84L73.03 9.46L73.03 9.41L73.03 7.66Q73.03 6.96 72.76 6.59Q72.48 6.22 72.10 6.22L72.10 6.22Q71.76 6.22 71.51 6.53Q71.26 6.84 71.26 7.37L71.26 7.37L71.26 8.42L67.18 8.42L67.18 7.85Q67.18 5.26 68.39 4.15Q69.60 3.05 72.34 3.05L72.34 3.05Q74.52 3.05 75.89 4.19Q77.26 5.33 77.26 7.42L77.26 7.42L77.26 20.81L73.08 20.81L73.08 18.72Q72.77 19.80 72.08 20.40Q71.40 21 70.46 21L70.46 21ZM72.12 17.74Q72.60 17.74 72.80 17.34Q73.01 16.94 73.01 16.37L73.01 16.37L73.01 11.47Q72.07 11.83 71.63 12.38Q71.18 12.94 71.18 13.92L71.18 13.92L71.18 16.18Q71.18 17.74 72.12 17.74L72.12 17.74ZM83.02 20.81L78.86 20.81L78.86 0.07L83.02 0.07L83.02 9.29L85.03 3.24L89.38 3.24L86.74 10.87L90.10 20.81L85.63 20.81L83.02 12.53L83.02 20.81Z" transform="translate(0, 2.632)"></path><line x1="99.096" y1="2%" x2="99.096" y2="98%" stroke="#101010" stroke-linecap="round"></line><g fill="#ffffff" color="#ffffff" transform="translate(108.096 0) scale(0.1064025)"><svg width="247.2" height="272.55" x="0.0" y="0.0" viewBox="0 0 247.2 272.55"><defs><style type="text/css">
   
    .fil0 {fill:currentColor}
   
  </style></defs><g><path class="fil0" d="M46.66 125.81c13.91,4.98 27.22,14.32 33.58,21.72 2.79,3.24 1.47,3.2 -1.79,3.69 -7.69,1.15 -28.07,1.78 -41.65,9.63 21.37,-3.03 52.08,-12.72 62.48,7.96 5.91,11.77 10.02,59.08 -15.18,64.65 -31.04,6.87 -43.72,9.31 -65.19,23.82 26.8,-8.14 53.1,-17.8 82.02,-14.99 2.72,9.81 -12.99,21.81 -32.02,30.26 19.9,0 46.52,-19.52 50.14,-30.43 9.54,11.17 17.63,24.09 38.68,29.65 -14.14,-8.62 -24.24,-19.23 -22.21,-31.28 11.77,6.72 48.06,-1.83 74.23,24.73 -18.28,-32.5 -58.02,-27.31 -70.63,-32.24 -21.55,-8.41 -14.87,-45.3 -12.17,-60.83 6.88,-24.28 77.44,-18.88 76.59,-78.06 -1.77,31.74 -38.04,50.53 -53.03,50.96 -2.39,0.07 -2.46,-0.42 -1.99,-2.18 3.07,-11.36 8.02,-27.43 -1.72,-38.37 8.41,20.56 0.67,34.82 -13.76,46.31 -3.31,2.64 -11.25,10.96 -11.33,10.94 -7.68,-1.52 -11.51,-49.24 -0.23,-67.66 -12.09,14.98 -10.8,32.17 -12.94,41.33 -0.5,2.19 -1.8,1.8 -3.43,0.95 -7.91,-4.1 -16.93,-20.52 -32.45,-22.85 32.74,15.42 42.26,66.3 39.36,63.97 -5.81,-13.91 -9.72,-19.73 -15.8,-25.14 -11.58,-10.3 -31.52,-24.83 -49.58,-26.55z"></path><path class="fil0" d="M71.37 161.52c3.36,12.97 -11.94,12.7 -21.31,15.5 0,0 5.03,-23.86 21.31,-15.5z"></path><path class="fil0" d="M44.81 164.18c3.36,12.97 -11.95,12.71 -21.32,15.5 0,0 5.03,-23.87 21.32,-15.5z"></path><path class="fil0" d="M34.53 156.65c-8.87,13.58 -21.11,-0.34 -31.24,-6.44 0,0 25.46,-14.95 31.24,6.44z"></path><path class="fil0" d="M50.94 152.6c6.21,-14.98 -12.18,-17.24 -22.94,-22.17 0,0 2.01,29.45 22.94,22.17z"></path><path class="fil0" d="M42.94 125.69c6.21,-14.98 -12.18,-17.24 -22.94,-22.17 0,0 2.01,29.45 22.94,22.17z"></path><path class="fil0" d="M22.94 140.03c6.21,-14.98 -12.18,-17.24 -22.94,-22.17 0,0 2.01,29.45 22.94,22.17z"></path><path class="fil0" d="M182.47 140.97c-4.07,15.7 14.46,15.38 25.8,18.76 0,0 -6.09,-28.89 -25.8,-18.76z"></path><path class="fil0" d="M207.03 140.7c-3.55,13.7 12.62,13.42 22.52,16.37 0,0 -5.31,-25.2 -22.52,-16.37z"></path><path class="fil0" d="M219.96 134.8c0.22,-14.07 15.65,-9.53 25.92,-9.74 0,0 -11.76,22.76 -25.92,9.74z"></path><path class="fil0" d="M201.96 130.59c-5.78,-13.93 11.32,-16.03 21.33,-20.61 0,0 -1.87,27.38 -21.33,20.61z"></path><path class="fil0" d="M210.8 104.77c-6.21,-14.98 12.18,-17.24 22.94,-22.17 0,0 -2.01,29.45 -22.94,22.17z"></path><path class="fil0" d="M226.85 121.67c-5.51,-13.29 10.81,-15.3 20.35,-19.67 0,0 -1.78,26.13 -20.35,19.67z"></path><path class="fil0" d="M119.1 110.65c11.09,6.59 14.96,-7.63 20.06,-15.54 0,0 -23.41,-1.77 -20.06,15.54z"></path><path class="fil0" d="M171.79 134.52c14.39,-7.47 1.76,-21.04 -3.3,-31.73 0,0 -17.41,23.84 3.3,31.73z"></path><path class="fil0" d="M143.54 89.51c13.94,8.29 18.81,-9.59 25.22,-19.54 0,0 -29.44,-2.22 -25.22,19.54z"></path><path class="fil0" d="M129.69 88.12c-13.54,-8.92 0.42,-21.11 6.57,-31.22 0,0 14.85,25.52 -6.57,31.22z"></path><path class="fil0" d="M123.86 65.76c-15.09,-5.93 -3.95,-20.74 -0.02,-31.91 0,0 19.8,21.9 0.02,31.91z"></path><path class="fil0" d="M147 71.32c-13.54,-8.92 0.42,-21.11 6.57,-31.22 0,0 14.85,25.52 -6.57,31.22z"></path><path class="fil0" d="M187.15 119.85c14.39,-7.47 1.76,-21.04 -3.3,-31.73 0,0 -17.41,23.84 3.3,31.73z"></path><path class="fil0" d="M196.83 95.06c14.39,-7.47 1.76,-21.04 -3.3,-31.73 0,0 -17.41,23.84 3.3,31.73z"></path><path class="fil0" d="M209.89 85.94c-11.2,-11.73 5.14,-20.48 13.39,-28.96 0,0 8.76,28.19 -13.39,28.96z"></path><path class="fil0" d="M116.07 94.09c14.39,-7.47 1.76,-21.04 -3.3,-31.73 0,0 -17.41,23.84 3.3,31.73z"></path><path class="fil0" d="M64.77 123.52c-16.22,0.17 -11.45,-17.74 -12.01,-29.56 0,0 26.57,12.85 12.01,29.56z"></path><path class="fil0" d="M47.43 108.23c-15.83,3.52 -14.87,-14.99 -17.85,-26.44 0,0 28.65,7.09 17.85,26.44z"></path><path class="fil0" d="M69.72 99.91c-16.22,0.17 -11.45,-17.73 -12.01,-29.56 0,0 26.57,12.85 12.01,29.56z"></path><path class="fil0" d="M81.16 113.01c-13.54,-8.92 0.42,-21.11 6.57,-31.22 0,0 14.85,25.52 -6.57,31.22z"></path><path class="fil0" d="M97.14 82.6c-15.09,-5.93 -3.95,-20.74 -0.02,-31.91 0,0 19.8,21.9 0.02,31.91z"></path><path class="fil0" d="M82.69 77.07c6.21,-14.98 -12.18,-17.24 -22.94,-22.17 0,0 2.01,29.45 22.94,22.17z"></path><path class="fil0" d="M49.41 84.46c-16.22,0.17 -11.45,-17.74 -12.01,-29.56 0,0 26.57,12.85 12.01,29.56z"></path><path class="fil0" d="M86.34 62.36c-16.22,0.17 -11.45,-17.74 -12.01,-29.56 0,0 26.57,12.85 12.01,29.56z"></path><path class="fil0" d="M109.87 54.89c-16.22,0.17 -11.45,-17.73 -12.01,-29.56 0,0 26.57,12.85 12.01,29.56z"></path><path class="fil0" d="M138.35 49.46c-13.54,-8.92 0.42,-21.11 6.57,-31.22 0,0 14.85,25.52 -6.57,31.22z"></path><path class="fil0" d="M164.6 64.43c13.94,8.29 18.81,-9.59 25.22,-19.54 0,0 -29.44,-2.22 -25.22,19.54z"></path><path class="fil0" d="M163.72 97.61c15.69,4.13 15.43,-14.4 18.86,-25.73 0,0 -28.91,5.98 -18.86,25.73z"></path><path class="fil0" d="M205.24 69.47c14.39,-7.47 1.76,-21.04 -3.3,-31.73 0,0 -17.41,23.84 3.3,31.73z"></path><path class="fil0" d="M165.93 48.66c14.39,-7.47 1.76,-21.04 -3.3,-31.73 0,0 -17.41,23.84 3.3,31.73z"></path><path class="fil0" d="M178.97 40.95c-13.54,-8.92 0.42,-21.11 6.57,-31.22 0,0 14.85,25.52 -6.57,31.22z"></path><path class="fil0" d="M116.73 34.1c12.76,-6.63 1.57,-18.65 -2.93,-28.13 0,0 -15.43,21.14 2.93,28.13z"></path><path class="fil0" d="M93.38 33.08c5.5,-13.27 -10.79,-15.27 -20.31,-19.64 0,0 1.78,26.09 20.31,19.64z"></path><path class="fil0" d="M51.44 59.69c-13.61,-2.73 -6.44,-16.89 -4.81,-26.89 0,0 19.97,15.48 4.81,26.89z"></path><path class="fil0" d="M11.44 116.23c-13.61,-2.73 -6.44,-16.89 -4.81,-26.89 0,0 19.97,15.48 4.81,26.89z"></path><path class="fil0" d="M26.66 97.41c-13.12,4.54 -14.1,-11.3 -17.76,-20.75 0,0 25.06,3.24 17.76,20.75z"></path><path class="fil0" d="M32.41 77.43c-13.12,4.54 -14.1,-11.3 -17.76,-20.75 0,0 25.06,3.24 17.76,20.75z"></path><path class="fil0" d="M34.89 57.56c-13.12,4.54 -14.1,-11.3 -17.76,-20.75 0,0 25.06,3.24 17.76,20.75z"></path><path class="fil0" d="M70.51 48.66c-13.12,4.54 -14.1,-11.3 -17.76,-20.75 0,0 25.06,3.24 17.76,20.75z"></path><path class="fil0" d="M129.66 26.89c13.61,-2.73 6.44,-16.89 4.81,-26.89 0,0 -19.97,15.48 -4.81,26.89z"></path><path class="fil0" d="M151.98 21.73c11,-2.21 5.21,-13.65 3.89,-21.73 0,0 -16.15,12.52 -3.89,21.73z"></path><path class="fil0" d="M97.33 21.73c11,-2.21 5.21,-13.65 3.89,-21.73 0,0 -16.15,12.52 -3.89,21.73z"></path><path class="fil0" d="M65.25 30.91c11,-2.21 5.21,-13.65 3.89,-21.73 0,0 -16.15,12.52 -3.89,21.73z"></path><path class="fil0" d="M216.54 51.81c-11,-2.21 -5.21,-13.65 -3.89,-21.73 0,0 16.15,12.52 3.89,21.73z"></path><path class="fil0" d="M101.14 115.83c11,-2.21 5.21,-13.65 3.89,-21.73 0,0 -16.15,12.52 -3.89,21.73z"></path><path class="fil0" d="M146.05 133.76c-13.12,4.54 -14.1,-11.3 -17.76,-20.75 0,0 25.06,3.24 17.76,20.75z"></path><path class="fil0" d="M25.2 167.09c-7.52,-10.26 -16.51,1.15 -24.19,6.36 0,0 20.56,10.63 24.19,-6.36z"></path></g></svg></g></svg>